<mxfile host="app.diagrams.net" agent="Mozilla/5.0 (Windows NT 10.0; Win64; x64) AppleWebKit/537.36 (KHTML, like Gecko) Chrome/135.0.0.0 Safari/537.36" version="26.0.12">
  <diagram name="PÃ¡gina-1" id="kR-7IEOnlHxpoZK6nyRD">
    <mxGraphModel dx="819" dy="441" grid="1" gridSize="10" guides="1" tooltips="1" connect="1" arrows="1" fold="1" page="1" pageScale="1" pageWidth="827" pageHeight="1169" math="0" shadow="0">
      <root>
        <mxCell id="0" />
        <mxCell id="1" parent="0" />
        <mxCell id="2EUBf0vmNjV3moGsrQth-1" value="Act24" style="ellipse;whiteSpace=wrap;html=1;aspect=fixed;" vertex="1" parent="1">
          <mxGeometry x="30" y="150" width="60" height="60" as="geometry" />
        </mxCell>
        <mxCell id="2EUBf0vmNjV3moGsrQth-2" value="Act18" style="ellipse;whiteSpace=wrap;html=1;aspect=fixed;" vertex="1" parent="1">
          <mxGeometry x="120" y="150" width="60" height="60" as="geometry" />
        </mxCell>
        <mxCell id="2EUBf0vmNjV3moGsrQth-3" value="Act16" style="ellipse;whiteSpace=wrap;html=1;aspect=fixed;" vertex="1" parent="1">
          <mxGeometry x="210" y="150" width="60" height="60" as="geometry" />
        </mxCell>
        <mxCell id="2EUBf0vmNjV3moGsrQth-4" value="Act02" style="ellipse;whiteSpace=wrap;html=1;aspect=fixed;" vertex="1" parent="1">
          <mxGeometry x="300" y="150" width="60" height="60" as="geometry" />
        </mxCell>
        <mxCell id="2EUBf0vmNjV3moGsrQth-5" value="Act05" style="ellipse;whiteSpace=wrap;html=1;aspect=fixed;" vertex="1" parent="1">
          <mxGeometry x="390" y="150" width="60" height="60" as="geometry" />
        </mxCell>
        <mxCell id="2EUBf0vmNjV3moGsrQth-6" value="Act17" style="ellipse;whiteSpace=wrap;html=1;aspect=fixed;" vertex="1" parent="1">
          <mxGeometry x="480" y="150" width="60" height="60" as="geometry" />
        </mxCell>
        <mxCell id="2EUBf0vmNjV3moGsrQth-7" value="Act22" style="ellipse;whiteSpace=wrap;html=1;aspect=fixed;" vertex="1" parent="1">
          <mxGeometry x="570" y="150" width="60" height="60" as="geometry" />
        </mxCell>
        <mxCell id="2EUBf0vmNjV3moGsrQth-8" value="Act13" style="ellipse;whiteSpace=wrap;html=1;aspect=fixed;" vertex="1" parent="1">
          <mxGeometry x="660" y="150" width="60" height="60" as="geometry" />
        </mxCell>
        <mxCell id="2EUBf0vmNjV3moGsrQth-10" value="" style="endArrow=classic;html=1;rounded=0;exitX=1;exitY=0.5;exitDx=0;exitDy=0;" edge="1" parent="1" source="2EUBf0vmNjV3moGsrQth-1">
          <mxGeometry width="50" height="50" relative="1" as="geometry">
            <mxPoint x="220" y="220" as="sourcePoint" />
            <mxPoint x="120" y="180" as="targetPoint" />
            <Array as="points">
              <mxPoint x="110" y="180" />
            </Array>
          </mxGeometry>
        </mxCell>
        <mxCell id="2EUBf0vmNjV3moGsrQth-11" value="" style="endArrow=classic;html=1;rounded=0;exitX=1;exitY=0.5;exitDx=0;exitDy=0;" edge="1" parent="1">
          <mxGeometry width="50" height="50" relative="1" as="geometry">
            <mxPoint x="180" y="179.76" as="sourcePoint" />
            <mxPoint x="210" y="179.76" as="targetPoint" />
            <Array as="points">
              <mxPoint x="200" y="179.76" />
            </Array>
          </mxGeometry>
        </mxCell>
        <mxCell id="2EUBf0vmNjV3moGsrQth-12" value="" style="endArrow=classic;html=1;rounded=0;exitX=1;exitY=0.5;exitDx=0;exitDy=0;" edge="1" parent="1">
          <mxGeometry width="50" height="50" relative="1" as="geometry">
            <mxPoint x="270" y="179.76" as="sourcePoint" />
            <mxPoint x="300" y="179.76" as="targetPoint" />
            <Array as="points">
              <mxPoint x="290" y="179.76" />
            </Array>
          </mxGeometry>
        </mxCell>
        <mxCell id="2EUBf0vmNjV3moGsrQth-13" value="" style="endArrow=classic;html=1;rounded=0;exitX=1;exitY=0.5;exitDx=0;exitDy=0;" edge="1" parent="1">
          <mxGeometry width="50" height="50" relative="1" as="geometry">
            <mxPoint x="360" y="179.76" as="sourcePoint" />
            <mxPoint x="390" y="179.76" as="targetPoint" />
            <Array as="points">
              <mxPoint x="380" y="179.76" />
            </Array>
          </mxGeometry>
        </mxCell>
        <mxCell id="2EUBf0vmNjV3moGsrQth-14" value="" style="endArrow=classic;html=1;rounded=0;exitX=1;exitY=0.5;exitDx=0;exitDy=0;" edge="1" parent="1">
          <mxGeometry width="50" height="50" relative="1" as="geometry">
            <mxPoint x="450" y="179.76" as="sourcePoint" />
            <mxPoint x="480" y="179.76" as="targetPoint" />
            <Array as="points">
              <mxPoint x="470" y="179.76" />
            </Array>
          </mxGeometry>
        </mxCell>
        <mxCell id="2EUBf0vmNjV3moGsrQth-15" value="" style="endArrow=classic;html=1;rounded=0;exitX=1;exitY=0.5;exitDx=0;exitDy=0;" edge="1" parent="1">
          <mxGeometry width="50" height="50" relative="1" as="geometry">
            <mxPoint x="540" y="179.76" as="sourcePoint" />
            <mxPoint x="570" y="179.76" as="targetPoint" />
            <Array as="points">
              <mxPoint x="560" y="179.76" />
            </Array>
          </mxGeometry>
        </mxCell>
        <mxCell id="2EUBf0vmNjV3moGsrQth-16" value="" style="endArrow=classic;html=1;rounded=0;exitX=1;exitY=0.5;exitDx=0;exitDy=0;" edge="1" parent="1">
          <mxGeometry width="50" height="50" relative="1" as="geometry">
            <mxPoint x="630" y="179.8" as="sourcePoint" />
            <mxPoint x="660" y="179.8" as="targetPoint" />
            <Array as="points">
              <mxPoint x="650" y="179.8" />
            </Array>
          </mxGeometry>
        </mxCell>
      </root>
    </mxGraphModel>
  </diagram>
</mxfile>
